<?xml version="1.0" encoding="utf-8"?>
<!-- Generator: Adobe Illustrator 20.1.0, SVG Export Plug-In . SVG Version: 6.00 Build 0)  -->
<svg version="1.1" id="Warstwa_1" xmlns="http://www.w3.org/2000/svg" xmlns:xlink="http://www.w3.org/1999/xlink" x="0px" y="0px"
	 width="498.707px" height="94.66px" viewBox="0 0 498.707 94.66" style="enable-background:new 0 0 498.707 94.66;"
	 xml:space="preserve">
<style type="text/css">
	.st0{fill:#1E90FF;}
	.st1{fill:#FFFFFF;}
</style>
<g>
	<g>
		<g>
			<path class="st0" d="M94.662,83.469c0,6.184-5.01,11.191-11.191,11.191H11.195C5.014,94.66,0,89.652,0,83.469V11.195
				C0,5.012,5.014,0,11.195,0h72.275c6.182,0,11.191,5.012,11.191,11.195V83.469z"/>
			<path class="st1" d="M78.484,28.012c-0.277-0.43-0.75-0.688-1.258-0.688h-8.588c-0.592,0-1.125,0.352-1.367,0.891l-8.854,20.02
				l-9.756-21.43c-0.244-0.535-0.777-0.875-1.365-0.875h-0.74c-0.584,0-1.115,0.34-1.359,0.875l-9.752,21.422l-8.789-20.008
				c-0.24-0.543-0.775-0.895-1.369-0.895h-7.852c-0.508,0-0.98,0.258-1.256,0.688c-0.275,0.426-0.313,0.965-0.104,1.43
				l17.986,39.414c0.24,0.535,0.771,0.875,1.357,0.875h0.805c0.584,0,1.111-0.336,1.355-0.863l9.723-20.914l9.783,20.918
				c0.244,0.523,0.771,0.859,1.354,0.859h0.666c0.584,0,1.111-0.34,1.359-0.867l18.117-39.422
				C78.795,28.98,78.758,28.441,78.484,28.012z"/>
		</g>
		<path d="M309.167,66.25c-0.512,0.09-1.105,0.199-1.785,0.312c-0.676,0.117-1.363,0.176-2.062,0.176
			c-0.887,0-1.656-0.094-2.309-0.281c-0.656-0.184-1.203-0.535-1.644-1.051c-0.445-0.512-0.785-1.211-1.016-2.098
			c-0.234-0.887-0.352-2.055-0.352-3.5V45.602h8.469c0.137-0.75,0.234-1.426,0.277-2.031c0.051-0.605,0.074-1.234,0.074-1.891
			c0-0.605-0.023-1.188-0.074-1.746c-0.043-0.562-0.141-1.191-0.277-1.895h-8.469V27.473h-1.609l-13.086,16.727l0.348,1.402h4.547
			V61.98c0,4.477,1.121,7.707,3.363,9.691c2.238,1.984,5.48,2.973,9.727,2.973c2.285,0,4.504-0.254,6.648-0.766
			c0.047-0.328,0.082-0.664,0.105-1.016c0.023-0.352,0.035-0.781,0.035-1.297c0-0.746-0.07-1.598-0.211-2.555
			C309.73,68.055,309.496,67.137,309.167,66.25z M270.324,38.039v28.348c-1.164,0.328-2.613,0.488-4.342,0.488
			c-1.262,0-2.355-0.148-3.289-0.449c-0.934-0.305-1.711-0.816-2.344-1.543c-0.629-0.723-1.098-1.703-1.402-2.937
			c-0.301-1.238-0.453-2.812-0.453-4.727v-19.18c-1.68-0.277-3.334-0.418-4.967-0.418c-1.635,0-3.291,0.141-4.971,0.418V57.5
			c0,3.871,0.488,6.977,1.469,9.309c0.98,2.332,2.299,4.105,3.955,5.316c1.656,1.215,3.58,2.008,5.775,2.383
			c2.191,0.371,4.477,0.559,6.861,0.559c2.66,0,5.211-0.246,7.66-0.734c2.453-0.492,4.422-0.992,5.918-1.508V38.039
			c-1.68-0.277-3.336-0.418-4.973-0.418C273.636,37.621,272.003,37.762,270.324,38.039z M213.598,40.699
			c-2.729-2.332-6.52-3.5-11.373-3.5c-1.773,0-3.688,0.168-5.738,0.492c-2.055,0.328-4.107,0.84-6.16,1.539
			c0,1.492,0.164,2.777,0.49,3.852c0.326,1.074,0.816,2.215,1.471,3.426c2.844-0.977,5.529-1.469,8.049-1.469
			c1.164,0,2.227,0.07,3.184,0.211s1.762,0.41,2.414,0.809c0.654,0.394,1.168,0.941,1.539,1.644
			c0.375,0.699,0.561,1.606,0.561,2.727v0.84c-1.633-0.141-3.125-0.211-4.478-0.211c-1.867,0-3.734,0.199-5.6,0.594
			c-1.867,0.398-3.559,1.055-5.074,1.961c-1.518,0.91-2.752,2.125-3.711,3.641c-0.955,1.516-1.432,3.395-1.432,5.633
			c0,2.242,0.385,4.129,1.154,5.672c0.77,1.539,1.865,2.797,3.287,3.777c1.424,0.98,3.127,1.68,5.111,2.102
			c1.98,0.422,4.164,0.629,6.543,0.629c2.941,0,5.576-0.234,7.91-0.699c2.332-0.465,4.314-0.957,5.947-1.469v-21
			C217.691,46.77,216.326,43.035,213.598,40.699z M208.033,66.875c-0.512,0.098-1.119,0.203-1.818,0.316
			c-0.699,0.117-1.402,0.176-2.1,0.176c-0.607,0-1.318-0.035-2.135-0.102c-0.816-0.074-1.586-0.258-2.311-0.562
			c-0.725-0.305-1.342-0.781-1.854-1.434c-0.514-0.652-0.771-1.586-0.771-2.801c0-1.82,0.666-3.137,1.996-3.953
			c1.328-0.816,3.137-1.226,5.424-1.226c0.514,0,1.096,0.035,1.75,0.105s1.258,0.152,1.818,0.246V66.875z M180.178,23.48
			c-1.539,0-3.033,0.141-4.479,0.422l-7.209,38.844l-9.029-38.844c-1.633-0.281-3.15-0.422-4.549-0.422
			c-0.842,0-1.658,0.039-2.449,0.109c-0.795,0.066-1.658,0.172-2.59,0.312l-8.68,37.867l-7.209-37.867
			c-0.84-0.184-1.693-0.301-2.555-0.348c-0.863-0.047-1.713-0.074-2.555-0.074c-2.146,0-4.059,0.141-5.738,0.422l11.967,50.324
			c1.68,0.281,3.242,0.418,4.689,0.418c1.025,0,1.971-0.047,2.834-0.137c0.865-0.094,1.855-0.191,2.977-0.281l8.678-33.527
			l8.049,33.527c2.1,0.281,4.035,0.418,5.809,0.418c1.82,0,3.57-0.137,5.25-0.418l12.109-50.324c-0.84-0.094-1.705-0.184-2.59-0.281
			C182.021,23.531,181.111,23.48,180.178,23.48z M241.805,66.598c-0.445,0.047-0.852,0.07-1.227,0.07
			c-0.84,0-1.539-0.094-2.098-0.281c-0.561-0.188-1.016-0.523-1.367-1.016c-0.35-0.488-0.607-1.176-0.77-2.062
			c-0.164-0.887-0.242-2.055-0.242-3.5V23.062c-1.682-0.277-3.316-0.418-4.9-0.418c-1.635,0-3.293,0.141-4.971,0.418V61.98
			c0,4.477,1.086,7.707,3.254,9.691c2.17,1.984,5.051,2.973,8.646,2.973c0.885,0,1.854-0.047,2.904-0.137
			c1.049-0.094,1.945-0.258,2.693-0.492c0.094-0.371,0.141-0.711,0.141-1.016v-1.016c0-1.816-0.258-3.684-0.77-5.598
			C242.68,66.48,242.246,66.551,241.805,66.598z M474.621,66.25c-0.512,0.09-1.105,0.199-1.785,0.312
			c-0.672,0.117-1.363,0.176-2.062,0.176c-0.887,0-1.656-0.094-2.309-0.281c-0.656-0.184-1.203-0.535-1.645-1.051
			c-0.445-0.512-0.785-1.211-1.016-2.098c-0.234-0.887-0.348-2.055-0.348-3.5V45.602h8.465c0.141-0.75,0.234-1.426,0.281-2.031
			s0.07-1.234,0.07-1.891c0-0.605-0.023-1.188-0.07-1.746c-0.047-0.562-0.141-1.191-0.281-1.895h-8.465V27.473h-1.613
			l-13.086,16.727l0.348,1.402h4.551V61.98c0,4.477,1.117,7.707,3.359,9.691c2.238,1.984,5.48,2.973,9.73,2.973
			c2.285,0,4.5-0.254,6.648-0.766c0.047-0.328,0.082-0.664,0.105-1.016c0.023-0.352,0.035-0.781,0.035-1.297
			c0-0.746-0.074-1.598-0.211-2.555C475.183,68.055,474.949,67.137,474.621,66.25z M397.144,37.199c-2.613,0-4.77,0.645-6.473,1.93
			c-1.703,1.281-3.023,2.789-3.953,4.512c-1.586-4.293-5.207-6.441-10.851-6.441c-1.305,0-2.484,0.176-3.535,0.527
			c-1.047,0.348-1.992,0.805-2.832,1.367c-0.84,0.559-1.566,1.188-2.172,1.887c-0.605,0.699-1.094,1.398-1.469,2.102
			c-0.047-0.324-0.105-0.727-0.176-1.191c-0.07-0.465-0.152-0.945-0.242-1.434c-0.094-0.488-0.199-0.957-0.316-1.402
			c-0.117-0.441-0.246-0.777-0.387-1.016c-0.652-0.137-1.281-0.242-1.891-0.312c-0.605-0.07-1.305-0.105-2.098-0.105
			s-1.516,0.035-2.172,0.105c-0.652,0.07-1.305,0.176-1.957,0.312v36.188c1.68,0.281,3.336,0.418,4.969,0.418
			c1.633,0,3.289-0.137,4.969-0.418V55.258c0-1.961,0.188-3.543,0.562-4.758c0.371-1.215,0.875-2.16,1.504-2.836
			c0.629-0.676,1.34-1.129,2.133-1.363c0.797-0.23,1.586-0.352,2.379-0.352c1.914,0,3.184,0.68,3.816,2.031
			c0.629,1.352,0.945,3.289,0.945,5.809v20.438c1.68,0.281,3.336,0.418,4.969,0.418c1.633,0,3.289-0.137,4.969-0.418V54.699
			c0-1.82,0.199-3.301,0.598-4.445c0.395-1.141,0.906-2.027,1.539-2.66c0.629-0.629,1.328-1.059,2.098-1.293
			c0.77-0.23,1.551-0.352,2.348-0.352c1.91,0,3.184,0.68,3.812,2.031c0.629,1.352,0.941,3.289,0.941,5.809v20.438
			c1.684,0.281,3.34,0.418,4.973,0.418c1.633,0,3.289-0.137,4.969-0.418V51.199c0-4.805-0.969-8.34-2.902-10.602
			C404.273,38.332,401.25,37.199,397.144,37.199z M344.515,42.695c-1.449-1.703-3.27-3.043-5.461-4.023
			c-2.191-0.981-4.758-1.473-7.699-1.473c-2.941,0-5.492,0.492-7.664,1.473c-2.172,0.98-3.965,2.32-5.391,4.023
			c-1.422,1.707-2.496,3.723-3.219,6.055c-0.723,2.336-1.082,4.828-1.082,7.488c0,2.66,0.359,5.133,1.082,7.422
			c0.723,2.285,1.797,4.281,3.219,5.981c1.426,1.703,3.219,3.035,5.391,3.992c2.172,0.953,4.723,1.434,7.664,1.434
			c2.941,0,5.508-0.48,7.699-1.434c2.191-0.957,4.012-2.289,5.461-3.992c1.445-1.699,2.516-3.695,3.219-5.981
			c0.699-2.289,1.047-4.762,1.047-7.422c0-2.66-0.348-5.152-1.047-7.488C347.031,46.418,345.96,44.402,344.515,42.695z
			 M336.992,64.605c-1.145,1.934-3.024,2.902-5.637,2.902c-2.566,0-4.422-0.969-5.562-2.902c-1.148-1.938-1.715-4.727-1.715-8.367
			c0-3.641,0.566-6.426,1.715-8.363c1.141-1.934,2.996-2.906,5.562-2.906c2.613,0,4.492,0.973,5.637,2.906
			c1.141,1.938,1.715,4.723,1.715,8.363C338.706,59.879,338.132,62.668,336.992,64.605z M441.765,40.699
			c-2.73-2.332-6.523-3.5-11.375-3.5c-1.773,0-3.688,0.168-5.742,0.492c-2.051,0.328-4.105,0.84-6.156,1.539
			c0,1.492,0.164,2.777,0.488,3.852c0.328,1.074,0.816,2.215,1.473,3.426c2.844-0.977,5.527-1.469,8.047-1.469
			c1.168,0,2.227,0.07,3.188,0.211c0.953,0.141,1.758,0.41,2.41,0.809c0.656,0.394,1.168,0.941,1.543,1.644
			c0.371,0.699,0.559,1.606,0.559,2.727v0.84c-1.633-0.141-3.125-0.211-4.481-0.211c-1.863,0-3.73,0.199-5.598,0.594
			c-1.867,0.398-3.559,1.055-5.074,1.961c-1.52,0.91-2.754,2.125-3.707,3.641c-0.961,1.516-1.438,3.395-1.438,5.633
			c0,2.242,0.387,4.129,1.156,5.672c0.77,1.539,1.867,2.797,3.285,3.777c1.426,0.98,3.129,1.68,5.113,2.102
			c1.98,0.422,4.164,0.629,6.543,0.629c2.941,0,5.574-0.234,7.91-0.699c2.332-0.465,4.316-0.957,5.949-1.469v-21
			C445.859,46.77,444.492,43.035,441.765,40.699z M436.199,66.875c-0.512,0.098-1.117,0.203-1.816,0.316
			c-0.699,0.117-1.402,0.176-2.102,0.176c-0.605,0-1.32-0.035-2.137-0.102c-0.816-0.074-1.586-0.258-2.309-0.562
			c-0.723-0.305-1.344-0.781-1.855-1.434c-0.516-0.652-0.77-1.586-0.77-2.801c0-1.82,0.668-3.137,1.996-3.953
			c1.328-0.816,3.137-1.226,5.422-1.226c0.516,0,1.098,0.035,1.754,0.105c0.648,0.07,1.258,0.152,1.816,0.246V66.875z
			 M489.644,43.074c-4.992,0-9.047-4.062-9.047-9.066c0-4.996,4.055-9.047,9.047-9.047c5.004,0,9.062,4.051,9.062,9.047
			C498.707,39.012,494.648,43.074,489.644,43.074z M489.644,26.211c-4.273,0-7.672,3.449-7.672,7.797
			c0,4.379,3.398,7.816,7.672,7.816c4.293,0,7.648-3.438,7.648-7.816C497.293,29.66,493.937,26.211,489.644,26.211z M491.605,39.027
			l-2.059-3.969h-1.285l-0.012,3.969h-1.828V28.973h3.766c1.91,0,3.254,1.414,3.254,3.094c0,1.418-0.887,2.344-1.984,2.707
			l2.246,4.254H491.605z M489.949,30.547h-1.688v3.027h1.688c0.992,0,1.656-0.664,1.656-1.508
			C491.605,31.207,490.941,30.547,489.949,30.547z"/>
	</g>
</g>
</svg>
